# xmcd
#
# Track frame offsets:
#	150
#	17487
#	34625
#	58025
#	79607
#	98562
#	121245
#	139012
#	160607
#	178845
#	195655
#
# Disc length: 2887 seconds
#
# Revision: 0
# Processed by: cddbd v1.4PL0 Copyright (c) Steve Scherf et al.
# Submitted via: dBpowerAMP V4.0
#
DISCID=7f0b450b
DTITLE=Expresso - Ímpar
DYEAR=1900
DGENRE=Country
TTITLE0=Deixe Como Está
TTITLE1=Loucuras Do Desejo
TTITLE2=Que Paixão
TTITLE3=Perplexo
TTITLE4=Velhas Feridas
TTITLE5=Velha Blusa
TTITLE6=Prejudicado
TTITLE7=Heroína
TTITLE8=Ímpar (Instrumental)
TTITLE9=Love Spirits Haunts Our Hearts
TTITLE10=Perplexo
EXTD=
EXTT0=
EXTT1=
EXTT2=
EXTT3=
EXTT4=
EXTT5=
EXTT6=
EXTT7=
EXTT8=
EXTT9=
EXTT10=
PLAYORDER=
